<?xml version="1.0" encoding="utf-8" standalone="no"?>
<!DOCTYPE svg PUBLIC "-//W3C//DTD SVG 1.1//EN"
  "http://www.w3.org/Graphics/SVG/1.1/DTD/svg11.dtd">
<svg xmlns:xlink="http://www.w3.org/1999/xlink" width="503.74375pt" height="322.023594pt" viewBox="0 0 503.74375 322.023594" xmlns="http://www.w3.org/2000/svg" version="1.1">
 <metadata>
  <rdf:RDF xmlns:dc="http://purl.org/dc/elements/1.1/" xmlns:cc="http://creativecommons.org/ns#" xmlns:rdf="http://www.w3.org/1999/02/22-rdf-syntax-ns#">
   <cc:Work>
    <dc:type rdf:resource="http://purl.org/dc/dcmitype/StillImage"/>
    <dc:date>2025-11-13T18:22:49.639024</dc:date>
    <dc:format>image/svg+xml</dc:format>
    <dc:creator>
     <cc:Agent>
      <dc:title>Matplotlib v3.10.7, https://matplotlib.org/</dc:title>
     </cc:Agent>
    </dc:creator>
   </cc:Work>
  </rdf:RDF>
 </metadata>
 <defs>
  <style type="text/css">*{stroke-linejoin: round; stroke-linecap: butt}</style>
 </defs>
 <g id="figure_1">
  <g id="patch_1">
   <path d="M 0 322.023594 
L 503.74375 322.023594 
L 503.74375 0 
L 0 0 
z
" style="fill: #ffffff"/>
  </g>
  <g id="axes_1">
   <g id="patch_2">
    <path d="M 50.14375 252.72 
L 496.54375 252.72 
L 496.54375 7.2 
L 50.14375 7.2 
z
" style="fill: #ffffff"/>
   </g>
   <g id="matplotlib.axis_1">
    <g id="xtick_1">
     <g id="line2d_1">
      <defs>
       <path id="mba325a411c" d="M 0 0 
L 0 3.5 
" style="stroke: #000000; stroke-width: 0.8"/>
      </defs>
      <g>
       <use xlink:href="#mba325a411c" x="70.434659" y="252.72" style="stroke: #000000; stroke-width: 0.8"/>
      </g>
     </g>
     <g id="text_1">
      <!-- 0 -->
      <g transform="translate(67.253409 267.318437) scale(0.1 -0.1)">
       <defs>
        <path id="DejaVuSans-30" d="M 2034 4250 
Q 1547 4250 1301 3770 
Q 1056 3291 1056 2328 
Q 1056 1369 1301 889 
Q 1547 409 2034 409 
Q 2525 409 2770 889 
Q 3016 1369 3016 2328 
Q 3016 3291 2770 3770 
Q 2525 4250 2034 4250 
z
M 2034 4750 
Q 2819 4750 3233 4129 
Q 3647 3509 3647 2328 
Q 3647 1150 3233 529 
Q 2819 -91 2034 -91 
Q 1250 -91 836 529 
Q 422 1150 422 2328 
Q 422 3509 836 4129 
Q 1250 4750 2034 4750 
z
" transform="scale(0.015625)"/>
       </defs>
       <use xlink:href="#DejaVuSans-30"/>
      </g>
     </g>
    </g>
    <g id="xtick_2">
     <g id="line2d_2">
      <g>
       <use xlink:href="#mba325a411c" x="207.535396" y="252.72" style="stroke: #000000; stroke-width: 0.8"/>
      </g>
     </g>
     <g id="text_2">
      <!-- 25 -->
      <g transform="translate(201.172896 267.318437) scale(0.1 -0.1)">
       <defs>
        <path id="DejaVuSans-32" d="M 1228 531 
L 3431 531 
L 3431 0 
L 469 0 
L 469 531 
Q 828 903 1448 1529 
Q 2069 2156 2228 2338 
Q 2531 2678 2651 2914 
Q 2772 3150 2772 3378 
Q 2772 3750 2511 3984 
Q 2250 4219 1831 4219 
Q 1534 4219 1204 4116 
Q 875 4013 500 3803 
L 500 4441 
Q 881 4594 1212 4672 
Q 1544 4750 1819 4750 
Q 2544 4750 2975 4387 
Q 3406 4025 3406 3419 
Q 3406 3131 3298 2873 
Q 3191 2616 2906 2266 
Q 2828 2175 2409 1742 
Q 1991 1309 1228 531 
z
" transform="scale(0.015625)"/>
        <path id="DejaVuSans-35" d="M 691 4666 
L 3169 4666 
L 3169 4134 
L 1269 4134 
L 1269 2991 
Q 1406 3038 1543 3061 
Q 1681 3084 1819 3084 
Q 2600 3084 3056 2656 
Q 3513 2228 3513 1497 
Q 3513 744 3044 326 
Q 2575 -91 1722 -91 
Q 1428 -91 1123 -41 
Q 819 9 494 109 
L 494 744 
Q 775 591 1075 516 
Q 1375 441 1709 441 
Q 2250 441 2565 725 
Q 2881 1009 2881 1497 
Q 2881 1984 2565 2268 
Q 2250 2553 1709 2553 
Q 1456 2553 1204 2497 
Q 953 2441 691 2322 
L 691 4666 
z
" transform="scale(0.015625)"/>
       </defs>
       <use xlink:href="#DejaVuSans-32"/>
       <use xlink:href="#DejaVuSans-35" transform="translate(63.623047 0)"/>
      </g>
     </g>
    </g>
    <g id="xtick_3">
     <g id="line2d_3">
      <g>
       <use xlink:href="#mba325a411c" x="344.636133" y="252.72" style="stroke: #000000; stroke-width: 0.8"/>
      </g>
     </g>
     <g id="text_3">
      <!-- 50 -->
      <g transform="translate(338.273633 267.318437) scale(0.1 -0.1)">
       <use xlink:href="#DejaVuSans-35"/>
       <use xlink:href="#DejaVuSans-30" transform="translate(63.623047 0)"/>
      </g>
     </g>
    </g>
    <g id="text_4">
     <!-- Simulation Step -->
     <g transform="translate(221.854609 283.276094) scale(0.13 -0.13)">
      <defs>
       <path id="DejaVuSans-53" d="M 3425 4513 
L 3425 3897 
Q 3066 4069 2747 4153 
Q 2428 4238 2131 4238 
Q 1616 4238 1336 4038 
Q 1056 3838 1056 3469 
Q 1056 3159 1242 3001 
Q 1428 2844 1947 2747 
L 2328 2669 
Q 3034 2534 3370 2195 
Q 3706 1856 3706 1288 
Q 3706 609 3251 259 
Q 2797 -91 1919 -91 
Q 1588 -91 1214 -16 
Q 841 59 441 206 
L 441 856 
Q 825 641 1194 531 
Q 1563 422 1919 422 
Q 2459 422 2753 634 
Q 3047 847 3047 1241 
Q 3047 1584 2836 1778 
Q 2625 1972 2144 2069 
L 1759 2144 
Q 1053 2284 737 2584 
Q 422 2884 422 3419 
Q 422 4038 858 4394 
Q 1294 4750 2059 4750 
Q 2388 4750 2728 4690 
Q 3069 4631 3425 4513 
z
" transform="scale(0.015625)"/>
       <path id="DejaVuSans-69" d="M 603 3500 
L 1178 3500 
L 1178 0 
L 603 0 
L 603 3500 
z
M 603 4863 
L 1178 4863 
L 1178 4134 
L 603 4134 
L 603 4863 
z
" transform="scale(0.015625)"/>
       <path id="DejaVuSans-6d" d="M 3328 2828 
Q 3544 3216 3844 3400 
Q 4144 3584 4550 3584 
Q 5097 3584 5394 3201 
Q 5691 2819 5691 2113 
L 5691 0 
L 5113 0 
L 5113 2094 
Q 5113 2597 4934 2840 
Q 4756 3084 4391 3084 
Q 3944 3084 3684 2787 
Q 3425 2491 3425 1978 
L 3425 0 
L 2847 0 
L 2847 2094 
Q 2847 2600 2669 2842 
Q 2491 3084 2119 3084 
Q 1678 3084 1418 2786 
Q 1159 2488 1159 1978 
L 1159 0 
L 581 0 
L 581 3500 
L 1159 3500 
L 1159 2956 
Q 1356 3278 1631 3431 
Q 1906 3584 2284 3584 
Q 2666 3584 2933 3390 
Q 3200 3197 3328 2828 
z
" transform="scale(0.015625)"/>
       <path id="DejaVuSans-75" d="M 544 1381 
L 544 3500 
L 1119 3500 
L 1119 1403 
Q 1119 906 1312 657 
Q 1506 409 1894 409 
Q 2359 409 2629 706 
Q 2900 1003 2900 1516 
L 2900 3500 
L 3475 3500 
L 3475 0 
L 2900 0 
L 2900 538 
Q 2691 219 2414 64 
Q 2138 -91 1772 -91 
Q 1169 -91 856 284 
Q 544 659 544 1381 
z
M 1991 3584 
L 1991 3584 
z
" transform="scale(0.015625)"/>
       <path id="DejaVuSans-6c" d="M 603 4863 
L 1178 4863 
L 1178 0 
L 603 0 
L 603 4863 
z
" transform="scale(0.015625)"/>
       <path id="DejaVuSans-61" d="M 2194 1759 
Q 1497 1759 1228 1600 
Q 959 1441 959 1056 
Q 959 750 1161 570 
Q 1363 391 1709 391 
Q 2188 391 2477 730 
Q 2766 1069 2766 1631 
L 2766 1759 
L 2194 1759 
z
M 3341 1997 
L 3341 0 
L 2766 0 
L 2766 531 
Q 2569 213 2275 61 
Q 1981 -91 1556 -91 
Q 1019 -91 701 211 
Q 384 513 384 1019 
Q 384 1609 779 1909 
Q 1175 2209 1959 2209 
L 2766 2209 
L 2766 2266 
Q 2766 2663 2505 2880 
Q 2244 3097 1772 3097 
Q 1472 3097 1187 3025 
Q 903 2953 641 2809 
L 641 3341 
Q 956 3463 1253 3523 
Q 1550 3584 1831 3584 
Q 2591 3584 2966 3190 
Q 3341 2797 3341 1997 
z
" transform="scale(0.015625)"/>
       <path id="DejaVuSans-74" d="M 1172 4494 
L 1172 3500 
L 2356 3500 
L 2356 3053 
L 1172 3053 
L 1172 1153 
Q 1172 725 1289 603 
Q 1406 481 1766 481 
L 2356 481 
L 2356 0 
L 1766 0 
Q 1100 0 847 248 
Q 594 497 594 1153 
L 594 3053 
L 172 3053 
L 172 3500 
L 594 3500 
L 594 4494 
L 1172 4494 
z
" transform="scale(0.015625)"/>
       <path id="DejaVuSans-6f" d="M 1959 3097 
Q 1497 3097 1228 2736 
Q 959 2375 959 1747 
Q 959 1119 1226 758 
Q 1494 397 1959 397 
Q 2419 397 2687 759 
Q 2956 1122 2956 1747 
Q 2956 2369 2687 2733 
Q 2419 3097 1959 3097 
z
M 1959 3584 
Q 2709 3584 3137 3096 
Q 3566 2609 3566 1747 
Q 3566 888 3137 398 
Q 2709 -91 1959 -91 
Q 1206 -91 779 398 
Q 353 888 353 1747 
Q 353 2609 779 3096 
Q 1206 3584 1959 3584 
z
" transform="scale(0.015625)"/>
       <path id="DejaVuSans-6e" d="M 3513 2113 
L 3513 0 
L 2938 0 
L 2938 2094 
Q 2938 2591 2744 2837 
Q 2550 3084 2163 3084 
Q 1697 3084 1428 2787 
Q 1159 2491 1159 1978 
L 1159 0 
L 581 0 
L 581 3500 
L 1159 3500 
L 1159 2956 
Q 1366 3272 1645 3428 
Q 1925 3584 2291 3584 
Q 2894 3584 3203 3211 
Q 3513 2838 3513 2113 
z
" transform="scale(0.015625)"/>
       <path id="DejaVuSans-20" transform="scale(0.015625)"/>
       <path id="DejaVuSans-65" d="M 3597 1894 
L 3597 1613 
L 953 1613 
Q 991 1019 1311 708 
Q 1631 397 2203 397 
Q 2534 397 2845 478 
Q 3156 559 3463 722 
L 3463 178 
Q 3153 47 2828 -22 
Q 2503 -91 2169 -91 
Q 1331 -91 842 396 
Q 353 884 353 1716 
Q 353 2575 817 3079 
Q 1281 3584 2069 3584 
Q 2775 3584 3186 3129 
Q 3597 2675 3597 1894 
z
M 3022 2063 
Q 3016 2534 2758 2815 
Q 2500 3097 2075 3097 
Q 1594 3097 1305 2825 
Q 1016 2553 972 2059 
L 3022 2063 
z
" transform="scale(0.015625)"/>
       <path id="DejaVuSans-70" d="M 1159 525 
L 1159 -1331 
L 581 -1331 
L 581 3500 
L 1159 3500 
L 1159 2969 
Q 1341 3281 1617 3432 
Q 1894 3584 2278 3584 
Q 2916 3584 3314 3078 
Q 3713 2572 3713 1747 
Q 3713 922 3314 415 
Q 2916 -91 2278 -91 
Q 1894 -91 1617 61 
Q 1341 213 1159 525 
z
M 3116 1747 
Q 3116 2381 2855 2742 
Q 2594 3103 2138 3103 
Q 1681 3103 1420 2742 
Q 1159 2381 1159 1747 
Q 1159 1113 1420 752 
Q 1681 391 2138 391 
Q 2594 391 2855 752 
Q 3116 1113 3116 1747 
z
" transform="scale(0.015625)"/>
      </defs>
      <use xlink:href="#DejaVuSans-53"/>
      <use xlink:href="#DejaVuSans-69" transform="translate(63.476562 0)"/>
      <use xlink:href="#DejaVuSans-6d" transform="translate(91.259766 0)"/>
      <use xlink:href="#DejaVuSans-75" transform="translate(188.671875 0)"/>
      <use xlink:href="#DejaVuSans-6c" transform="translate(252.050781 0)"/>
      <use xlink:href="#DejaVuSans-61" transform="translate(279.833984 0)"/>
      <use xlink:href="#DejaVuSans-74" transform="translate(341.113281 0)"/>
      <use xlink:href="#DejaVuSans-69" transform="translate(380.322266 0)"/>
      <use xlink:href="#DejaVuSans-6f" transform="translate(408.105469 0)"/>
      <use xlink:href="#DejaVuSans-6e" transform="translate(469.287109 0)"/>
      <use xlink:href="#DejaVuSans-20" transform="translate(532.666016 0)"/>
      <use xlink:href="#DejaVuSans-53" transform="translate(564.453125 0)"/>
      <use xlink:href="#DejaVuSans-74" transform="translate(627.929688 0)"/>
      <use xlink:href="#DejaVuSans-65" transform="translate(667.138672 0)"/>
      <use xlink:href="#DejaVuSans-70" transform="translate(728.662109 0)"/>
     </g>
    </g>
   </g>
   <g id="matplotlib.axis_2">
    <g id="ytick_1">
     <g id="line2d_4">
      <defs>
       <path id="mc6abb596fb" d="M 0 0 
L -3.5 0 
" style="stroke: #000000; stroke-width: 0.8"/>
      </defs>
      <g>
       <use xlink:href="#mc6abb596fb" x="50.14375" y="241.56" style="stroke: #000000; stroke-width: 0.8"/>
      </g>
     </g>
     <g id="text_5">
      <!-- 0.00 -->
      <g transform="translate(20.878125 245.359219) scale(0.1 -0.1)">
       <defs>
        <path id="DejaVuSans-2e" d="M 684 794 
L 1344 794 
L 1344 0 
L 684 0 
L 684 794 
z
" transform="scale(0.015625)"/>
       </defs>
       <use xlink:href="#DejaVuSans-30"/>
       <use xlink:href="#DejaVuSans-2e" transform="translate(63.623047 0)"/>
       <use xlink:href="#DejaVuSans-30" transform="translate(95.410156 0)"/>
       <use xlink:href="#DejaVuSans-30" transform="translate(159.033203 0)"/>
      </g>
     </g>
    </g>
    <g id="ytick_2">
     <g id="line2d_5">
      <g>
       <use xlink:href="#mc6abb596fb" x="50.14375" y="207.260139" style="stroke: #000000; stroke-width: 0.8"/>
      </g>
     </g>
     <g id="text_6">
      <!-- 0.05 -->
      <g transform="translate(20.878125 211.059358) scale(0.1 -0.1)">
       <use xlink:href="#DejaVuSans-30"/>
       <use xlink:href="#DejaVuSans-2e" transform="translate(63.623047 0)"/>
       <use xlink:href="#DejaVuSans-30" transform="translate(95.410156 0)"/>
       <use xlink:href="#DejaVuSans-35" transform="translate(159.033203 0)"/>
      </g>
     </g>
    </g>
    <g id="ytick_3">
     <g id="line2d_6">
      <g>
       <use xlink:href="#mc6abb596fb" x="50.14375" y="172.960278" style="stroke: #000000; stroke-width: 0.8"/>
      </g>
     </g>
     <g id="text_7">
      <!-- 0.10 -->
      <g transform="translate(20.878125 176.759497) scale(0.1 -0.1)">
       <defs>
        <path id="DejaVuSans-31" d="M 794 531 
L 1825 531 
L 1825 4091 
L 703 3866 
L 703 4441 
L 1819 4666 
L 2450 4666 
L 2450 531 
L 3481 531 
L 3481 0 
L 794 0 
L 794 531 
z
" transform="scale(0.015625)"/>
       </defs>
       <use xlink:href="#DejaVuSans-30"/>
       <use xlink:href="#DejaVuSans-2e" transform="translate(63.623047 0)"/>
       <use xlink:href="#DejaVuSans-31" transform="translate(95.410156 0)"/>
       <use xlink:href="#DejaVuSans-30" transform="translate(159.033203 0)"/>
      </g>
     </g>
    </g>
    <g id="ytick_4">
     <g id="line2d_7">
      <g>
       <use xlink:href="#mc6abb596fb" x="50.14375" y="138.660418" style="stroke: #000000; stroke-width: 0.8"/>
      </g>
     </g>
     <g id="text_8">
      <!-- 0.15 -->
      <g transform="translate(20.878125 142.459636) scale(0.1 -0.1)">
       <use xlink:href="#DejaVuSans-30"/>
       <use xlink:href="#DejaVuSans-2e" transform="translate(63.623047 0)"/>
       <use xlink:href="#DejaVuSans-31" transform="translate(95.410156 0)"/>
       <use xlink:href="#DejaVuSans-35" transform="translate(159.033203 0)"/>
      </g>
     </g>
    </g>
    <g id="ytick_5">
     <g id="line2d_8">
      <g>
       <use xlink:href="#mc6abb596fb" x="50.14375" y="104.360557" style="stroke: #000000; stroke-width: 0.8"/>
      </g>
     </g>
     <g id="text_9">
      <!-- 0.20 -->
      <g transform="translate(20.878125 108.159776) scale(0.1 -0.1)">
       <use xlink:href="#DejaVuSans-30"/>
       <use xlink:href="#DejaVuSans-2e" transform="translate(63.623047 0)"/>
       <use xlink:href="#DejaVuSans-32" transform="translate(95.410156 0)"/>
       <use xlink:href="#DejaVuSans-30" transform="translate(159.033203 0)"/>
      </g>
     </g>
    </g>
    <g id="ytick_6">
     <g id="line2d_9">
      <g>
       <use xlink:href="#mc6abb596fb" x="50.14375" y="70.060696" style="stroke: #000000; stroke-width: 0.8"/>
      </g>
     </g>
     <g id="text_10">
      <!-- 0.25 -->
      <g transform="translate(20.878125 73.859915) scale(0.1 -0.1)">
       <use xlink:href="#DejaVuSans-30"/>
       <use xlink:href="#DejaVuSans-2e" transform="translate(63.623047 0)"/>
       <use xlink:href="#DejaVuSans-32" transform="translate(95.410156 0)"/>
       <use xlink:href="#DejaVuSans-35" transform="translate(159.033203 0)"/>
      </g>
     </g>
    </g>
    <g id="ytick_7">
     <g id="line2d_10">
      <g>
       <use xlink:href="#mc6abb596fb" x="50.14375" y="35.760835" style="stroke: #000000; stroke-width: 0.8"/>
      </g>
     </g>
     <g id="text_11">
      <!-- 0.30 -->
      <g transform="translate(20.878125 39.560054) scale(0.1 -0.1)">
       <defs>
        <path id="DejaVuSans-33" d="M 2597 2516 
Q 3050 2419 3304 2112 
Q 3559 1806 3559 1356 
Q 3559 666 3084 287 
Q 2609 -91 1734 -91 
Q 1441 -91 1130 -33 
Q 819 25 488 141 
L 488 750 
Q 750 597 1062 519 
Q 1375 441 1716 441 
Q 2309 441 2620 675 
Q 2931 909 2931 1356 
Q 2931 1769 2642 2001 
Q 2353 2234 1838 2234 
L 1294 2234 
L 1294 2753 
L 1863 2753 
Q 2328 2753 2575 2939 
Q 2822 3125 2822 3475 
Q 2822 3834 2567 4026 
Q 2313 4219 1838 4219 
Q 1578 4219 1281 4162 
Q 984 4106 628 3988 
L 628 4550 
Q 988 4650 1302 4700 
Q 1616 4750 1894 4750 
Q 2613 4750 3031 4423 
Q 3450 4097 3450 3541 
Q 3450 3153 3228 2886 
Q 3006 2619 2597 2516 
z
" transform="scale(0.015625)"/>
       </defs>
       <use xlink:href="#DejaVuSans-30"/>
       <use xlink:href="#DejaVuSans-2e" transform="translate(63.623047 0)"/>
       <use xlink:href="#DejaVuSans-33" transform="translate(95.410156 0)"/>
       <use xlink:href="#DejaVuSans-30" transform="translate(159.033203 0)"/>
      </g>
     </g>
    </g>
    <g id="text_12">
     <!-- RMSE -->
     <g transform="translate(14.798437 144.081875) rotate(-90) scale(0.1 -0.1)">
      <defs>
       <path id="DejaVuSans-52" d="M 2841 2188 
Q 3044 2119 3236 1894 
Q 3428 1669 3622 1275 
L 4263 0 
L 3584 0 
L 2988 1197 
Q 2756 1666 2539 1819 
Q 2322 1972 1947 1972 
L 1259 1972 
L 1259 0 
L 628 0 
L 628 4666 
L 2053 4666 
Q 2853 4666 3247 4331 
Q 3641 3997 3641 3322 
Q 3641 2881 3436 2590 
Q 3231 2300 2841 2188 
z
M 1259 4147 
L 1259 2491 
L 2053 2491 
Q 2509 2491 2742 2702 
Q 2975 2913 2975 3322 
Q 2975 3731 2742 3939 
Q 2509 4147 2053 4147 
L 1259 4147 
z
" transform="scale(0.015625)"/>
       <path id="DejaVuSans-4d" d="M 628 4666 
L 1569 4666 
L 2759 1491 
L 3956 4666 
L 4897 4666 
L 4897 0 
L 4281 0 
L 4281 4097 
L 3078 897 
L 2444 897 
L 1241 4097 
L 1241 0 
L 628 0 
L 628 4666 
z
" transform="scale(0.015625)"/>
       <path id="DejaVuSans-45" d="M 628 4666 
L 3578 4666 
L 3578 4134 
L 1259 4134 
L 1259 2753 
L 3481 2753 
L 3481 2222 
L 1259 2222 
L 1259 531 
L 3634 531 
L 3634 0 
L 628 0 
L 628 4666 
z
" transform="scale(0.015625)"/>
      </defs>
      <use xlink:href="#DejaVuSans-52"/>
      <use xlink:href="#DejaVuSans-4d" transform="translate(69.482422 0)"/>
      <use xlink:href="#DejaVuSans-53" transform="translate(155.761719 0)"/>
      <use xlink:href="#DejaVuSans-45" transform="translate(219.238281 0)"/>
     </g>
    </g>
   </g>
   <g id="line2d_11">
    <path d="M 70.434659 241.56 
L 75.918689 210.944663 
L 81.402718 196.353296 
L 86.886748 183.184625 
L 92.370777 169.706852 
L 97.854807 156.819505 
L 103.338836 146.100497 
L 108.822865 136.375097 
L 114.306895 127.830531 
L 119.790924 120.81755 
L 125.274954 114.443096 
L 130.758983 109.277146 
L 136.243013 104.08424 
L 141.727042 100.063263 
L 147.211072 95.510244 
L 152.695101 92.099652 
L 158.179131 88.051239 
L 163.66316 85.836456 
L 169.14719 83.619802 
L 174.631219 83.009131 
L 180.115249 80.133546 
L 185.599278 76.074083 
L 191.083308 73.807453 
L 196.567337 71.79741 
L 202.051367 68.774585 
L 207.535396 68.520565 
L 213.019426 66.216552 
L 218.503455 64.354914 
L 223.987485 63.314994 
L 229.471514 61.63899 
L 234.955544 58.653916 
L 240.439573 56.054933 
L 245.923603 53.687932 
L 251.407632 51.144107 
L 256.891662 48.558781 
L 262.375691 47.906117 
L 267.859721 46.171172 
L 273.34375 47.697503 
L 278.827779 44.565087 
L 284.311809 41.704663 
L 289.795838 40.006661 
L 295.279868 40.934076 
L 300.763897 41.773764 
L 306.247927 36.547054 
L 311.731956 36.21649 
L 317.215986 34.801662 
L 322.700015 33.493676 
L 328.184045 34.516934 
L 333.668074 33.194207 
L 339.152104 31.694801 
L 344.636133 31.89123 
L 350.120163 31.734709 
L 355.604192 32.207688 
L 361.088222 31.468013 
L 366.572251 30.723083 
L 372.056281 29.624365 
L 377.54031 30.111001 
L 383.02434 26.028088 
L 388.508369 27.094566 
L 393.992399 27.073345 
L 399.476428 24.493416 
L 404.960458 22.779671 
L 410.444487 23.228669 
L 415.928517 22.508519 
L 421.412546 23.10676 
L 426.896576 23.398234 
L 432.380605 24.592346 
L 437.864635 22.675569 
L 443.348664 19.268136 
L 448.832693 22.642858 
L 454.316723 23.283256 
L 459.800752 20.238382 
L 465.284782 18.786203 
L 470.768811 18.36 
L 476.252841 22.908143 
" clip-path="url(#p77405d8911)" style="fill: none; stroke: #1f77b4; stroke-width: 1.5; stroke-linecap: square"/>
   </g>
   <g id="line2d_12">
    <path d="M 70.434659 241.56 
L 75.918689 201.583658 
L 81.402718 185.151475 
L 86.886748 173.8388 
L 92.370777 164.539874 
L 97.854807 156.790402 
L 103.338836 150.486343 
L 108.822865 143.871658 
L 114.306895 137.612919 
L 119.790924 132.539305 
L 125.274954 127.197074 
L 130.758983 122.607715 
L 136.243013 117.675944 
L 141.727042 113.790759 
L 147.211072 109.152486 
L 152.695101 105.706649 
L 158.179131 101.742129 
L 163.66316 99.220569 
L 169.14719 96.443373 
L 174.631219 95.208659 
L 180.115249 91.743093 
L 185.599278 87.26536 
L 191.083308 84.655051 
L 196.567337 82.347328 
L 202.051367 79.102121 
L 207.535396 78.595327 
L 213.019426 76.198487 
L 218.503455 74.14136 
L 223.987485 73.111161 
L 229.471514 71.577899 
L 234.955544 68.933479 
L 240.439573 66.880563 
L 245.923603 64.813541 
L 251.407632 62.796628 
L 256.891662 60.641389 
L 262.375691 60.197216 
L 267.859721 58.908304 
L 273.34375 60.342861 
L 278.827779 57.621069 
L 284.311809 55.010188 
L 289.795838 53.661579 
L 295.279868 54.495645 
L 300.763897 55.035641 
L 306.247927 50.244987 
L 311.731956 49.755407 
L 317.215986 48.137526 
L 322.700015 46.827905 
L 328.184045 47.587472 
L 333.668074 46.258653 
L 339.152104 44.90616 
L 344.636133 45.101464 
L 350.120163 45.093021 
L 355.604192 45.656875 
L 361.088222 45.138939 
L 366.572251 44.591256 
L 372.056281 43.657442 
L 377.54031 44.166444 
L 383.02434 40.888914 
L 388.508369 41.924971 
L 393.992399 41.981152 
L 399.476428 39.871687 
L 404.960458 38.256914 
L 410.444487 38.591219 
L 415.928517 38.028571 
L 421.412546 38.459844 
L 426.896576 38.562822 
L 432.380605 39.498599 
L 437.864635 37.805258 
L 443.348664 34.874505 
L 448.832693 37.615801 
L 454.316723 38.166591 
L 459.800752 35.549658 
L 465.284782 34.096415 
L 470.768811 33.46258 
L 476.252841 36.943817 
" clip-path="url(#p77405d8911)" style="fill: none; stroke: #ff7f0e; stroke-width: 1.5; stroke-linecap: square"/>
   </g>
   <g id="line2d_13">
    <path d="M 70.434659 241.56 
L 75.918689 203.805605 
L 81.402718 184.459057 
L 86.886748 169.366669 
L 92.370777 156.029843 
L 97.854807 144.525692 
L 103.338836 135.281644 
L 108.822865 126.676439 
L 114.306895 119.19741 
L 119.790924 113.162086 
L 125.274954 107.507813 
L 130.758983 102.639614 
L 136.243013 97.799199 
L 141.727042 93.945007 
L 147.211072 89.610271 
L 152.695101 86.2572 
L 158.179131 82.659104 
L 163.66316 80.309797 
L 169.14719 77.777237 
L 174.631219 76.618617 
L 180.115249 73.569359 
L 185.599278 70.016741 
L 191.083308 68.087718 
L 196.567337 66.350953 
L 202.051367 63.717297 
L 207.535396 63.307082 
L 213.019426 61.275326 
L 218.503455 59.79066 
L 223.987485 59.120271 
L 229.471514 58.010963 
L 234.955544 55.739723 
L 240.439573 54.062962 
L 245.923603 52.546607 
L 251.407632 51.014368 
L 256.891662 49.335931 
L 262.375691 49.168185 
L 267.859721 48.137792 
L 273.34375 49.6741 
L 278.827779 47.460165 
L 284.311809 45.383678 
L 289.795838 44.183883 
L 295.279868 45.00969 
L 300.763897 45.624062 
L 306.247927 41.517924 
L 311.731956 40.981139 
L 317.215986 39.645941 
L 322.700015 38.480329 
L 328.184045 39.089754 
L 333.668074 37.973985 
L 339.152104 36.673032 
L 344.636133 36.588617 
L 350.120163 36.289946 
L 355.604192 36.475315 
L 361.088222 35.730345 
L 366.572251 34.896074 
L 372.056281 33.928588 
L 377.54031 34.248848 
L 383.02434 31.101528 
L 388.508369 31.82127 
L 393.992399 31.718517 
L 399.476428 29.646547 
L 404.960458 28.236708 
L 410.444487 28.499478 
L 415.928517 27.875518 
L 421.412546 28.38773 
L 426.896576 28.570093 
L 432.380605 29.451774 
L 437.864635 28.035413 
L 443.348664 25.461208 
L 448.832693 28.068165 
L 454.316723 28.523603 
L 459.800752 26.187452 
L 465.284782 25.03061 
L 470.768811 24.606084 
L 476.252841 27.954188 
" clip-path="url(#p77405d8911)" style="fill: none; stroke: #2ca02c; stroke-width: 1.5; stroke-linecap: square"/>
   </g>
   <g id="line2d_14">
    <path d="M 70.434659 241.56 
L 75.918689 182.289967 
L 81.402718 170.086952 
L 86.886748 159.269081 
L 92.370777 149.708263 
L 97.854807 142.410973 
L 103.338836 137.121693 
L 108.822865 131.329472 
L 114.306895 125.861509 
L 119.790924 121.634617 
L 125.274954 117.084163 
L 130.758983 113.277167 
L 136.243013 109.174117 
L 141.727042 105.996447 
L 147.211072 102.054753 
L 152.695101 99.176859 
L 158.179131 95.786467 
L 163.66316 93.794404 
L 169.14719 91.584527 
L 174.631219 90.744614 
L 180.115249 87.731838 
L 185.599278 83.883963 
L 191.083308 81.778465 
L 196.567337 80.011289 
L 202.051367 77.364365 
L 207.535396 77.288301 
L 213.019426 75.493915 
L 218.503455 74.020054 
L 223.987485 73.312609 
L 229.471514 72.141794 
L 234.955544 69.695704 
L 240.439573 67.869495 
L 245.923603 66.170757 
L 251.407632 64.432193 
L 256.891662 62.529993 
L 262.375691 62.430593 
L 267.859721 61.407478 
L 273.34375 63.026443 
L 278.827779 60.655823 
L 284.311809 58.453214 
L 289.795838 57.188161 
L 295.279868 58.218043 
L 300.763897 59.103568 
L 306.247927 54.748194 
L 311.731956 54.301465 
L 317.215986 52.887721 
L 322.700015 51.693201 
L 328.184045 52.515348 
L 333.668074 51.383224 
L 339.152104 50.101877 
L 344.636133 50.185658 
L 350.120163 49.895839 
L 355.604192 50.040196 
L 361.088222 49.326894 
L 366.572251 48.409763 
L 372.056281 47.170449 
L 377.54031 47.368146 
L 383.02434 43.951411 
L 388.508369 44.748044 
L 393.992399 44.628833 
L 399.476428 42.315028 
L 404.960458 40.686025 
L 410.444487 40.929414 
L 415.928517 40.249171 
L 421.412546 40.681875 
L 426.896576 40.862337 
L 432.380605 41.786276 
L 437.864635 40.177698 
L 443.348664 37.40134 
L 448.832693 40.15482 
L 454.316723 40.603593 
L 459.800752 38.157616 
L 465.284782 37.003023 
L 470.768811 36.591275 
L 476.252841 40.176287 
" clip-path="url(#p77405d8911)" style="fill: none; stroke: #d62728; stroke-width: 1.5; stroke-linecap: square"/>
   </g>
   <g id="patch_3">
    <path d="M 50.14375 252.72 
L 50.14375 7.2 
" style="fill: none; stroke: #000000; stroke-width: 0.8; stroke-linejoin: miter; stroke-linecap: square"/>
   </g>
   <g id="patch_4">
    <path d="M 496.54375 252.72 
L 496.54375 7.2 
" style="fill: none; stroke: #000000; stroke-width: 0.8; stroke-linejoin: miter; stroke-linecap: square"/>
   </g>
   <g id="patch_5">
    <path d="M 50.14375 252.72 
L 496.54375 252.72 
" style="fill: none; stroke: #000000; stroke-width: 0.8; stroke-linejoin: miter; stroke-linecap: square"/>
   </g>
   <g id="patch_6">
    <path d="M 50.14375 7.2 
L 496.54375 7.2 
" style="fill: none; stroke: #000000; stroke-width: 0.8; stroke-linejoin: miter; stroke-linecap: square"/>
   </g>
   <g id="legend_1">
    <g id="line2d_15">
     <path d="M 318.835 182.383125 
L 330.835 182.383125 
L 342.835 182.383125 
" style="fill: none; stroke: #1f77b4; stroke-width: 1.5; stroke-linecap: square"/>
    </g>
    <g id="text_13">
     <!-- AE+GNN(n=2, 1-step) -->
     <g transform="translate(352.435 186.583125) scale(0.12 -0.12)">
      <defs>
       <path id="DejaVuSans-41" d="M 2188 4044 
L 1331 1722 
L 3047 1722 
L 2188 4044 
z
M 1831 4666 
L 2547 4666 
L 4325 0 
L 3669 0 
L 3244 1197 
L 1141 1197 
L 716 0 
L 50 0 
L 1831 4666 
z
" transform="scale(0.015625)"/>
       <path id="DejaVuSans-2b" d="M 2944 4013 
L 2944 2272 
L 4684 2272 
L 4684 1741 
L 2944 1741 
L 2944 0 
L 2419 0 
L 2419 1741 
L 678 1741 
L 678 2272 
L 2419 2272 
L 2419 4013 
L 2944 4013 
z
" transform="scale(0.015625)"/>
       <path id="DejaVuSans-47" d="M 3809 666 
L 3809 1919 
L 2778 1919 
L 2778 2438 
L 4434 2438 
L 4434 434 
Q 4069 175 3628 42 
Q 3188 -91 2688 -91 
Q 1594 -91 976 548 
Q 359 1188 359 2328 
Q 359 3472 976 4111 
Q 1594 4750 2688 4750 
Q 3144 4750 3555 4637 
Q 3966 4525 4313 4306 
L 4313 3634 
Q 3963 3931 3569 4081 
Q 3175 4231 2741 4231 
Q 1884 4231 1454 3753 
Q 1025 3275 1025 2328 
Q 1025 1384 1454 906 
Q 1884 428 2741 428 
Q 3075 428 3337 486 
Q 3600 544 3809 666 
z
" transform="scale(0.015625)"/>
       <path id="DejaVuSans-4e" d="M 628 4666 
L 1478 4666 
L 3547 763 
L 3547 4666 
L 4159 4666 
L 4159 0 
L 3309 0 
L 1241 3903 
L 1241 0 
L 628 0 
L 628 4666 
z
" transform="scale(0.015625)"/>
       <path id="DejaVuSans-28" d="M 1984 4856 
Q 1566 4138 1362 3434 
Q 1159 2731 1159 2009 
Q 1159 1288 1364 580 
Q 1569 -128 1984 -844 
L 1484 -844 
Q 1016 -109 783 600 
Q 550 1309 550 2009 
Q 550 2706 781 3412 
Q 1013 4119 1484 4856 
L 1984 4856 
z
" transform="scale(0.015625)"/>
       <path id="DejaVuSans-3d" d="M 678 2906 
L 4684 2906 
L 4684 2381 
L 678 2381 
L 678 2906 
z
M 678 1631 
L 4684 1631 
L 4684 1100 
L 678 1100 
L 678 1631 
z
" transform="scale(0.015625)"/>
       <path id="DejaVuSans-2c" d="M 750 794 
L 1409 794 
L 1409 256 
L 897 -744 
L 494 -744 
L 750 256 
L 750 794 
z
" transform="scale(0.015625)"/>
       <path id="DejaVuSans-2d" d="M 313 2009 
L 1997 2009 
L 1997 1497 
L 313 1497 
L 313 2009 
z
" transform="scale(0.015625)"/>
       <path id="DejaVuSans-73" d="M 2834 3397 
L 2834 2853 
Q 2591 2978 2328 3040 
Q 2066 3103 1784 3103 
Q 1356 3103 1142 2972 
Q 928 2841 928 2578 
Q 928 2378 1081 2264 
Q 1234 2150 1697 2047 
L 1894 2003 
Q 2506 1872 2764 1633 
Q 3022 1394 3022 966 
Q 3022 478 2636 193 
Q 2250 -91 1575 -91 
Q 1294 -91 989 -36 
Q 684 19 347 128 
L 347 722 
Q 666 556 975 473 
Q 1284 391 1588 391 
Q 1994 391 2212 530 
Q 2431 669 2431 922 
Q 2431 1156 2273 1281 
Q 2116 1406 1581 1522 
L 1381 1569 
Q 847 1681 609 1914 
Q 372 2147 372 2553 
Q 372 3047 722 3315 
Q 1072 3584 1716 3584 
Q 2034 3584 2315 3537 
Q 2597 3491 2834 3397 
z
" transform="scale(0.015625)"/>
       <path id="DejaVuSans-29" d="M 513 4856 
L 1013 4856 
Q 1481 4119 1714 3412 
Q 1947 2706 1947 2009 
Q 1947 1309 1714 600 
Q 1481 -109 1013 -844 
L 513 -844 
Q 928 -128 1133 580 
Q 1338 1288 1338 2009 
Q 1338 2731 1133 3434 
Q 928 4138 513 4856 
z
" transform="scale(0.015625)"/>
      </defs>
      <use xlink:href="#DejaVuSans-41"/>
      <use xlink:href="#DejaVuSans-45" transform="translate(68.408203 0)"/>
      <use xlink:href="#DejaVuSans-2b" transform="translate(131.591797 0)"/>
      <use xlink:href="#DejaVuSans-47" transform="translate(215.380859 0)"/>
      <use xlink:href="#DejaVuSans-4e" transform="translate(292.871094 0)"/>
      <use xlink:href="#DejaVuSans-4e" transform="translate(367.675781 0)"/>
      <use xlink:href="#DejaVuSans-28" transform="translate(442.480469 0)"/>
      <use xlink:href="#DejaVuSans-6e" transform="translate(481.494141 0)"/>
      <use xlink:href="#DejaVuSans-3d" transform="translate(544.873047 0)"/>
      <use xlink:href="#DejaVuSans-32" transform="translate(628.662109 0)"/>
      <use xlink:href="#DejaVuSans-2c" transform="translate(692.285156 0)"/>
      <use xlink:href="#DejaVuSans-20" transform="translate(724.072266 0)"/>
      <use xlink:href="#DejaVuSans-31" transform="translate(755.859375 0)"/>
      <use xlink:href="#DejaVuSans-2d" transform="translate(819.482422 0)"/>
      <use xlink:href="#DejaVuSans-73" transform="translate(855.566406 0)"/>
      <use xlink:href="#DejaVuSans-74" transform="translate(907.666016 0)"/>
      <use xlink:href="#DejaVuSans-65" transform="translate(946.875 0)"/>
      <use xlink:href="#DejaVuSans-70" transform="translate(1008.398438 0)"/>
      <use xlink:href="#DejaVuSans-29" transform="translate(1071.875 0)"/>
     </g>
    </g>
    <g id="line2d_16">
     <path d="M 318.835 199.996875 
L 330.835 199.996875 
L 342.835 199.996875 
" style="fill: none; stroke: #ff7f0e; stroke-width: 1.5; stroke-linecap: square"/>
    </g>
    <g id="text_14">
     <!-- AE+GNN(n=2, 5-step) -->
     <g transform="translate(352.435 204.196875) scale(0.12 -0.12)">
      <use xlink:href="#DejaVuSans-41"/>
      <use xlink:href="#DejaVuSans-45" transform="translate(68.408203 0)"/>
      <use xlink:href="#DejaVuSans-2b" transform="translate(131.591797 0)"/>
      <use xlink:href="#DejaVuSans-47" transform="translate(215.380859 0)"/>
      <use xlink:href="#DejaVuSans-4e" transform="translate(292.871094 0)"/>
      <use xlink:href="#DejaVuSans-4e" transform="translate(367.675781 0)"/>
      <use xlink:href="#DejaVuSans-28" transform="translate(442.480469 0)"/>
      <use xlink:href="#DejaVuSans-6e" transform="translate(481.494141 0)"/>
      <use xlink:href="#DejaVuSans-3d" transform="translate(544.873047 0)"/>
      <use xlink:href="#DejaVuSans-32" transform="translate(628.662109 0)"/>
      <use xlink:href="#DejaVuSans-2c" transform="translate(692.285156 0)"/>
      <use xlink:href="#DejaVuSans-20" transform="translate(724.072266 0)"/>
      <use xlink:href="#DejaVuSans-35" transform="translate(755.859375 0)"/>
      <use xlink:href="#DejaVuSans-2d" transform="translate(819.482422 0)"/>
      <use xlink:href="#DejaVuSans-73" transform="translate(855.566406 0)"/>
      <use xlink:href="#DejaVuSans-74" transform="translate(907.666016 0)"/>
      <use xlink:href="#DejaVuSans-65" transform="translate(946.875 0)"/>
      <use xlink:href="#DejaVuSans-70" transform="translate(1008.398438 0)"/>
      <use xlink:href="#DejaVuSans-29" transform="translate(1071.875 0)"/>
     </g>
    </g>
    <g id="line2d_17">
     <path d="M 318.835 217.610625 
L 330.835 217.610625 
L 342.835 217.610625 
" style="fill: none; stroke: #2ca02c; stroke-width: 1.5; stroke-linecap: square"/>
    </g>
    <g id="text_15">
     <!-- AE+GNN(n=4, 1-step) -->
     <g transform="translate(352.435 221.810625) scale(0.12 -0.12)">
      <defs>
       <path id="DejaVuSans-34" d="M 2419 4116 
L 825 1625 
L 2419 1625 
L 2419 4116 
z
M 2253 4666 
L 3047 4666 
L 3047 1625 
L 3713 1625 
L 3713 1100 
L 3047 1100 
L 3047 0 
L 2419 0 
L 2419 1100 
L 313 1100 
L 313 1709 
L 2253 4666 
z
" transform="scale(0.015625)"/>
      </defs>
      <use xlink:href="#DejaVuSans-41"/>
      <use xlink:href="#DejaVuSans-45" transform="translate(68.408203 0)"/>
      <use xlink:href="#DejaVuSans-2b" transform="translate(131.591797 0)"/>
      <use xlink:href="#DejaVuSans-47" transform="translate(215.380859 0)"/>
      <use xlink:href="#DejaVuSans-4e" transform="translate(292.871094 0)"/>
      <use xlink:href="#DejaVuSans-4e" transform="translate(367.675781 0)"/>
      <use xlink:href="#DejaVuSans-28" transform="translate(442.480469 0)"/>
      <use xlink:href="#DejaVuSans-6e" transform="translate(481.494141 0)"/>
      <use xlink:href="#DejaVuSans-3d" transform="translate(544.873047 0)"/>
      <use xlink:href="#DejaVuSans-34" transform="translate(628.662109 0)"/>
      <use xlink:href="#DejaVuSans-2c" transform="translate(692.285156 0)"/>
      <use xlink:href="#DejaVuSans-20" transform="translate(724.072266 0)"/>
      <use xlink:href="#DejaVuSans-31" transform="translate(755.859375 0)"/>
      <use xlink:href="#DejaVuSans-2d" transform="translate(819.482422 0)"/>
      <use xlink:href="#DejaVuSans-73" transform="translate(855.566406 0)"/>
      <use xlink:href="#DejaVuSans-74" transform="translate(907.666016 0)"/>
      <use xlink:href="#DejaVuSans-65" transform="translate(946.875 0)"/>
      <use xlink:href="#DejaVuSans-70" transform="translate(1008.398438 0)"/>
      <use xlink:href="#DejaVuSans-29" transform="translate(1071.875 0)"/>
     </g>
    </g>
    <g id="line2d_18">
     <path d="M 318.835 235.224375 
L 330.835 235.224375 
L 342.835 235.224375 
" style="fill: none; stroke: #d62728; stroke-width: 1.5; stroke-linecap: square"/>
    </g>
    <g id="text_16">
     <!-- AE+GNN(n=4, 5-step) -->
     <g transform="translate(352.435 239.424375) scale(0.12 -0.12)">
      <use xlink:href="#DejaVuSans-41"/>
      <use xlink:href="#DejaVuSans-45" transform="translate(68.408203 0)"/>
      <use xlink:href="#DejaVuSans-2b" transform="translate(131.591797 0)"/>
      <use xlink:href="#DejaVuSans-47" transform="translate(215.380859 0)"/>
      <use xlink:href="#DejaVuSans-4e" transform="translate(292.871094 0)"/>
      <use xlink:href="#DejaVuSans-4e" transform="translate(367.675781 0)"/>
      <use xlink:href="#DejaVuSans-28" transform="translate(442.480469 0)"/>
      <use xlink:href="#DejaVuSans-6e" transform="translate(481.494141 0)"/>
      <use xlink:href="#DejaVuSans-3d" transform="translate(544.873047 0)"/>
      <use xlink:href="#DejaVuSans-34" transform="translate(628.662109 0)"/>
      <use xlink:href="#DejaVuSans-2c" transform="translate(692.285156 0)"/>
      <use xlink:href="#DejaVuSans-20" transform="translate(724.072266 0)"/>
      <use xlink:href="#DejaVuSans-35" transform="translate(755.859375 0)"/>
      <use xlink:href="#DejaVuSans-2d" transform="translate(819.482422 0)"/>
      <use xlink:href="#DejaVuSans-73" transform="translate(855.566406 0)"/>
      <use xlink:href="#DejaVuSans-74" transform="translate(907.666016 0)"/>
      <use xlink:href="#DejaVuSans-65" transform="translate(946.875 0)"/>
      <use xlink:href="#DejaVuSans-70" transform="translate(1008.398438 0)"/>
      <use xlink:href="#DejaVuSans-29" transform="translate(1071.875 0)"/>
     </g>
    </g>
   </g>
  </g>
  <g id="text_17">
   <!-- figure less mp for high compression -->
   <g transform="translate(149.596719 312.12) scale(0.13 -0.13)">
    <defs>
     <path id="DejaVuSans-66" d="M 2375 4863 
L 2375 4384 
L 1825 4384 
Q 1516 4384 1395 4259 
Q 1275 4134 1275 3809 
L 1275 3500 
L 2222 3500 
L 2222 3053 
L 1275 3053 
L 1275 0 
L 697 0 
L 697 3053 
L 147 3053 
L 147 3500 
L 697 3500 
L 697 3744 
Q 697 4328 969 4595 
Q 1241 4863 1831 4863 
L 2375 4863 
z
" transform="scale(0.015625)"/>
     <path id="DejaVuSans-67" d="M 2906 1791 
Q 2906 2416 2648 2759 
Q 2391 3103 1925 3103 
Q 1463 3103 1205 2759 
Q 947 2416 947 1791 
Q 947 1169 1205 825 
Q 1463 481 1925 481 
Q 2391 481 2648 825 
Q 2906 1169 2906 1791 
z
M 3481 434 
Q 3481 -459 3084 -895 
Q 2688 -1331 1869 -1331 
Q 1566 -1331 1297 -1286 
Q 1028 -1241 775 -1147 
L 775 -588 
Q 1028 -725 1275 -790 
Q 1522 -856 1778 -856 
Q 2344 -856 2625 -561 
Q 2906 -266 2906 331 
L 2906 616 
Q 2728 306 2450 153 
Q 2172 0 1784 0 
Q 1141 0 747 490 
Q 353 981 353 1791 
Q 353 2603 747 3093 
Q 1141 3584 1784 3584 
Q 2172 3584 2450 3431 
Q 2728 3278 2906 2969 
L 2906 3500 
L 3481 3500 
L 3481 434 
z
" transform="scale(0.015625)"/>
     <path id="DejaVuSans-72" d="M 2631 2963 
Q 2534 3019 2420 3045 
Q 2306 3072 2169 3072 
Q 1681 3072 1420 2755 
Q 1159 2438 1159 1844 
L 1159 0 
L 581 0 
L 581 3500 
L 1159 3500 
L 1159 2956 
Q 1341 3275 1631 3429 
Q 1922 3584 2338 3584 
Q 2397 3584 2469 3576 
Q 2541 3569 2628 3553 
L 2631 2963 
z
" transform="scale(0.015625)"/>
     <path id="DejaVuSans-68" d="M 3513 2113 
L 3513 0 
L 2938 0 
L 2938 2094 
Q 2938 2591 2744 2837 
Q 2550 3084 2163 3084 
Q 1697 3084 1428 2787 
Q 1159 2491 1159 1978 
L 1159 0 
L 581 0 
L 581 4863 
L 1159 4863 
L 1159 2956 
Q 1366 3272 1645 3428 
Q 1925 3584 2291 3584 
Q 2894 3584 3203 3211 
Q 3513 2838 3513 2113 
z
" transform="scale(0.015625)"/>
     <path id="DejaVuSans-63" d="M 3122 3366 
L 3122 2828 
Q 2878 2963 2633 3030 
Q 2388 3097 2138 3097 
Q 1578 3097 1268 2742 
Q 959 2388 959 1747 
Q 959 1106 1268 751 
Q 1578 397 2138 397 
Q 2388 397 2633 464 
Q 2878 531 3122 666 
L 3122 134 
Q 2881 22 2623 -34 
Q 2366 -91 2075 -91 
Q 1284 -91 818 406 
Q 353 903 353 1747 
Q 353 2603 823 3093 
Q 1294 3584 2113 3584 
Q 2378 3584 2631 3529 
Q 2884 3475 3122 3366 
z
" transform="scale(0.015625)"/>
    </defs>
    <use xlink:href="#DejaVuSans-66"/>
    <use xlink:href="#DejaVuSans-69" transform="translate(35.205078 0)"/>
    <use xlink:href="#DejaVuSans-67" transform="translate(62.988281 0)"/>
    <use xlink:href="#DejaVuSans-75" transform="translate(126.464844 0)"/>
    <use xlink:href="#DejaVuSans-72" transform="translate(189.84375 0)"/>
    <use xlink:href="#DejaVuSans-65" transform="translate(228.707031 0)"/>
    <use xlink:href="#DejaVuSans-20" transform="translate(290.230469 0)"/>
    <use xlink:href="#DejaVuSans-6c" transform="translate(322.017578 0)"/>
    <use xlink:href="#DejaVuSans-65" transform="translate(349.800781 0)"/>
    <use xlink:href="#DejaVuSans-73" transform="translate(411.324219 0)"/>
    <use xlink:href="#DejaVuSans-73" transform="translate(463.423828 0)"/>
    <use xlink:href="#DejaVuSans-20" transform="translate(515.523438 0)"/>
    <use xlink:href="#DejaVuSans-6d" transform="translate(547.310547 0)"/>
    <use xlink:href="#DejaVuSans-70" transform="translate(644.722656 0)"/>
    <use xlink:href="#DejaVuSans-20" transform="translate(708.199219 0)"/>
    <use xlink:href="#DejaVuSans-66" transform="translate(739.986328 0)"/>
    <use xlink:href="#DejaVuSans-6f" transform="translate(775.191406 0)"/>
    <use xlink:href="#DejaVuSans-72" transform="translate(836.373047 0)"/>
    <use xlink:href="#DejaVuSans-20" transform="translate(877.486328 0)"/>
    <use xlink:href="#DejaVuSans-68" transform="translate(909.273438 0)"/>
    <use xlink:href="#DejaVuSans-69" transform="translate(972.652344 0)"/>
    <use xlink:href="#DejaVuSans-67" transform="translate(1000.435547 0)"/>
    <use xlink:href="#DejaVuSans-68" transform="translate(1063.912109 0)"/>
    <use xlink:href="#DejaVuSans-20" transform="translate(1127.291016 0)"/>
    <use xlink:href="#DejaVuSans-63" transform="translate(1159.078125 0)"/>
    <use xlink:href="#DejaVuSans-6f" transform="translate(1214.058594 0)"/>
    <use xlink:href="#DejaVuSans-6d" transform="translate(1275.240234 0)"/>
    <use xlink:href="#DejaVuSans-70" transform="translate(1372.652344 0)"/>
    <use xlink:href="#DejaVuSans-72" transform="translate(1436.128906 0)"/>
    <use xlink:href="#DejaVuSans-65" transform="translate(1474.992188 0)"/>
    <use xlink:href="#DejaVuSans-73" transform="translate(1536.515625 0)"/>
    <use xlink:href="#DejaVuSans-73" transform="translate(1588.615234 0)"/>
    <use xlink:href="#DejaVuSans-69" transform="translate(1640.714844 0)"/>
    <use xlink:href="#DejaVuSans-6f" transform="translate(1668.498047 0)"/>
    <use xlink:href="#DejaVuSans-6e" transform="translate(1729.679688 0)"/>
   </g>
  </g>
 </g>
 <defs>
  <clipPath id="p77405d8911">
   <rect x="50.14375" y="7.2" width="446.4" height="245.52"/>
  </clipPath>
 </defs>
</svg>
